# xmcd
#
# Track frame offsets:
#	182
#	14587
#	42915
#	62557
#	77622
#	103240
#
# Disc length: 1693 seconds
#
# Revision: 0
# Processed by: cddbd v1.5.2PL0 Copyright (c) Steve Scherf et al.
# Submitted via: EasyCDDAExtractor 16.0.9.1
#
DISCID=46069b06
DTITLE=M-Pack! - I Want you To Play With My Ding-A-Ling (Single) (1999)
DYEAR=1999
DGENRE=Eurodance
TTITLE0=I Want you To Play With My Ding-A-Ling (Radio Edit)
TTITLE1=I Want you To Play With My Ding-A-Ling (Extended Edit)
TTITLE2=I Want you To Play With My Ding-A-Ling (Kingpin Club Remix)
TTITLE3=I Want you To Play With My Ding-A-Ling (Trunk Remix)
TTITLE4=I Want you To Play With My Ding-A-Ling (Mam Remix)
TTITLE5=I Want you To Play With My Ding-A-Ling (Sing Along To Dingelsong Remix
TTITLE5=)
EXTD=
EXTT0=
EXTT1=
EXTT2=
EXTT3=
EXTT4=
EXTT5=
PLAYORDER=
